<svg width="20" height="20" viewBox="0 0 20 20" fill="none" xmlns="http://www.w3.org/2000/svg">
<path d="M19.5113 17.1542L12.3563 9.99916L19.5108 2.84465C20.1618 2.19365 20.1618 1.13865 19.5108 0.487655C18.8598 -0.163345 17.8048 -0.163345 17.1538 0.487655L9.99927 7.64216L2.84477 0.487655C2.19377 -0.162845 1.13827 -0.162845 0.487773 0.487655C-0.163227 1.13865 -0.163227 2.19365 0.487773 2.84465L7.64227 9.99916L0.487273 17.1542C-0.163727 17.8052 -0.163727 18.8602 0.487273 19.5112C0.812773 19.8367 1.23927 19.9992 1.66577 19.9992C2.09227 19.9992 2.51877 19.8367 2.84427 19.5112L9.99927 12.3562L17.1543 19.5112C17.4798 19.8367 17.9063 19.9992 18.3328 19.9992C18.7593 19.9992 19.1858 19.8367 19.5113 19.5112C20.1623 18.8602 20.1623 17.8052 19.5113 17.1542Z" fill="#194E76"/>
</svg>
