<svg width="14" height="10" viewBox="0 0 14 10" fill="none" xmlns="http://www.w3.org/2000/svg">
<path d="M13.9896 1.00344C13.9896 0.98744 14.0007 0.971869 13.9999 0.956055L9.7276 5.07266L13.9948 9.05777C13.9973 9.0293 13.9896 9.0006 13.9896 8.97152V1.00344Z" fill="#8298B7"/>
<path d="M9.07546 5.70654L7.33137 7.38457C7.24312 7.46948 7.12913 7.51206 7.01508 7.51206C6.90341 7.51206 6.79174 7.47131 6.70409 7.38962L4.96475 5.76883L0.669678 9.90879C0.774114 9.94632 0.886213 9.97546 1.0036 9.97546H13.0266C13.2009 9.97546 13.3644 9.92236 13.5066 9.84316L9.07546 5.70654Z" fill="#8298B7"/>
<path d="M7.01011 6.42746L13.5303 0.146648C13.3826 0.0588782 13.2108 0 13.0266 0H1.00362C0.763784 0 0.544024 0.0931225 0.372864 0.235148L7.01011 6.42746Z" fill="#8298B7"/>
<path d="M0 1.15674V8.97173C0 9.06144 0.0206195 9.14793 0.043003 9.2306L4.28479 5.14586L0 1.15674Z" fill="#8298B7"/>
</svg>
