<svg width="20" height="20" viewBox="0 0 20 20" fill="none" xmlns="http://www.w3.org/2000/svg">
<path d="M0.661089 19.3384C-0.220363 18.4569 -0.220363 17.0278 0.661089 16.1464L16.1359 0.671675C17.0173 -0.209772 18.4464 -0.209772 19.3279 0.671675C20.2093 1.55312 20.2093 2.98223 19.3279 3.86367L3.85311 19.3384C2.97166 20.2198 1.54254 20.2198 0.661089 19.3384Z" fill="#8298B7"/>
<path d="M0.661089 11.439C-0.220363 10.5576 -0.220363 9.12845 0.661089 8.247L8.24705 0.661085C9.1285 -0.220362 10.5576 -0.220361 11.4391 0.661085C12.3205 1.54253 12.3205 2.97164 11.4391 3.85309L3.85311 11.439C2.97166 12.3204 1.54254 12.3204 0.661089 11.439Z" fill="#8298B7"/>
<path d="M8.56094 19.3389C7.67948 18.4575 7.67948 17.0284 8.56094 16.1469L16.1469 8.561C17.0283 7.67955 18.4575 7.67955 19.3389 8.561C20.2204 9.44245 20.2204 10.8716 19.3389 11.753L11.753 19.3389C10.8715 20.2204 9.44239 20.2204 8.56094 19.3389Z" fill="#8298B7"/>
</svg>
