<svg width="20" height="19" viewBox="0 0 20 19" fill="none" xmlns="http://www.w3.org/2000/svg">
<path d="M18.0645 0H1.93548C0.870968 0 0 0.870968 0 1.93548C0 3 0.870968 3.87097 1.93548 3.87097H18.0645C19.129 3.87097 20 3 20 1.93548C20 0.870968 19.129 0 18.0645 0Z" fill="#194E76"/>
<path d="M18.0645 7.09677H1.93548C0.870968 7.09677 0 7.96774 0 9.03226C0 10.0968 0.870968 10.9677 1.93548 10.9677H18.0645C19.129 10.9677 20 10.0968 20 9.03226C20 7.96774 19.129 7.09677 18.0645 7.09677Z" fill="#194E76"/>
<path d="M18.0645 14.1935H1.93548C0.870968 14.1935 0 15.0645 0 16.129C0 17.1935 0.870968 18.0645 1.93548 18.0645H18.0645C19.129 18.0645 20 17.1935 20 16.129C20 15.0645 19.129 14.1935 18.0645 14.1935Z" fill="#194E76"/>
</svg>
