<svg width="24" height="24" viewBox="0 0 24 24" fill="none" xmlns="http://www.w3.org/2000/svg">
<mask id="mask0_68_2422" style="mask-type:luminance" maskUnits="userSpaceOnUse" x="-1" y="0" width="25" height="24">
<path d="M20.7608 4.78559C20.5489 4.24155 20.2961 3.85198 19.8887 3.44464C19.48 3.03593 19.0918 2.78305 18.5464 2.57254C18.135 2.41261 17.5171 2.22261 16.3798 2.17067C15.1496 2.11463 14.7805 2.10232 11.6653 2.10232C8.55011 2.10232 8.18104 2.11463 6.95082 2.17067C5.81354 2.22261 5.19569 2.41261 4.78425 2.57254C4.24021 2.78442 3.85064 3.0373 3.4433 3.44464C3.03459 3.85335 2.78171 4.24155 2.5712 4.78559C2.41127 5.19703 2.22127 5.81488 2.16933 6.95216C2.11328 8.18239 2.10098 8.55146 2.10098 11.6667C2.10098 14.7819 2.11328 15.1509 2.16933 16.3812C2.22127 17.5185 2.41127 18.1363 2.5712 18.5477C2.78307 19.0918 3.03595 19.4814 3.4433 19.8887C3.85201 20.2974 4.24021 20.5489 4.78425 20.7608C5.19569 20.9207 5.81354 21.1107 6.95082 21.1627C8.18104 21.2187 8.55011 21.231 11.6653 21.231C14.7805 21.231 15.1496 21.2187 16.3798 21.1627C17.5171 21.1107 18.135 20.9207 18.5464 20.7608C19.0918 20.5489 19.48 20.296 19.8887 19.8887C20.2961 19.48 20.5489 19.0918 20.7608 18.5477C20.9207 18.1363 21.1107 17.5185 21.1627 16.3812C21.2187 15.1509 21.231 14.7819 21.231 11.6667C21.231 8.55146 21.2187 8.18239 21.1627 6.95216C21.1107 5.81488 20.9207 5.19703 20.7608 4.78559ZM11.6667 17.6579C8.35738 17.6579 5.67548 14.976 5.67548 11.6667C5.67548 8.35735 8.35738 5.67545 11.6667 5.67545C14.976 5.67545 17.6579 8.35735 17.6579 11.6667C17.6579 14.976 14.976 17.6579 11.6667 17.6579ZM17.8944 6.8387C17.1207 6.8387 16.4947 6.21129 16.4947 5.43898C16.4947 4.66667 17.1221 4.03925 17.8944 4.03925C18.6667 4.03925 19.2941 4.6653 19.2941 5.43898C19.2941 6.21265 18.6667 6.8387 17.8944 6.8387ZM11.6667 7.77778C9.51926 7.77778 7.7778 9.51923 7.7778 11.6667C7.7778 13.8141 9.51926 15.5556 11.6667 15.5556C13.8141 15.5556 15.5556 13.8141 15.5556 11.6667C15.5556 9.51923 13.8141 7.77778 11.6667 7.77778ZM23.2636 16.4769C23.2062 17.718 23.0094 18.5669 22.721 19.3091C22.423 20.076 22.0238 20.7266 21.3746 21.3759C20.7253 22.0238 20.076 22.423 19.3078 22.721C18.5655 23.0094 17.7181 23.2062 16.4755 23.2636C15.2316 23.3197 14.8338 23.3333 11.6653 23.3333C8.4968 23.3333 8.1004 23.3197 6.85513 23.2636C5.61397 23.2062 4.76511 23.0094 4.02287 22.721C3.25603 22.423 2.60538 22.0238 1.95609 21.3759C1.3068 20.7266 0.909026 20.076 0.611038 19.3091C0.322617 18.5669 0.125781 17.7194 0.0683702 16.4769C0.0123264 15.233 -0.00134277 14.8352 -0.00134277 11.6667C-0.00134277 8.49815 0.0123264 8.10037 0.0683702 6.85647C0.124414 5.61531 0.322617 4.76645 0.611038 4.02421C0.909026 3.25737 1.30817 2.60672 1.95609 1.95743C2.60538 1.30951 3.25466 0.910369 4.02287 0.61238C4.76511 0.32396 5.6126 0.127124 6.85513 0.069713C8.09903 0.0123023 8.4968 0 11.6653 0C14.8338 0 15.2316 0.0136692 16.4755 0.069713C17.7167 0.125757 18.5655 0.32396 19.3078 0.61238C20.0746 0.910369 20.7253 1.30951 21.3746 1.95743C22.0225 2.60672 22.4216 3.25737 22.721 4.02421C23.0094 4.76645 23.2062 5.61394 23.2636 6.85647C23.3211 8.10037 23.3334 8.49815 23.3334 11.6667C23.3334 14.8352 23.3197 15.233 23.2636 16.4769Z" fill="white"/>
</mask>
<g mask="url(#mask0_68_2422)">
<rect x="-0.307495" y="-0.332031" width="23.9211" height="23.9211" fill="white"/>
</g>
</svg>
