<svg width="20" height="20" viewBox="0 0 20 20" fill="none" xmlns="http://www.w3.org/2000/svg">
<path d="M19.5516 15.7833L16.4629 12.6942C15.8477 12.0815 14.8289 12.1001 14.1923 12.737L12.6362 14.2927C12.5379 14.2385 12.4361 14.1819 12.3291 14.1219C11.3465 13.5774 10.0015 12.8312 8.58628 11.4149C7.16683 9.99557 6.41986 8.64857 5.87372 7.66528C5.81609 7.56111 5.76087 7.46067 5.70634 7.36529L6.75071 6.32247L7.26416 5.80839C7.90178 5.1706 7.91936 4.15209 7.30559 3.53757L4.2169 0.4482C3.60313 -0.165457 2.58387 -0.146841 1.94626 0.490949L1.07576 1.36645L1.09955 1.39006C0.807657 1.76251 0.563746 2.19207 0.382234 2.6553C0.214915 3.09624 0.110743 3.517 0.0631095 3.93863C-0.344731 7.31973 1.20033 10.4098 5.39342 14.6029C11.1896 20.3987 15.8605 19.9608 16.062 19.9395C16.5009 19.887 16.9214 19.7821 17.3489 19.6161C17.8081 19.4368 18.2374 19.1932 18.6096 18.9019L18.6286 18.9188L19.5105 18.0553C20.1468 17.4176 20.1651 16.3988 19.5516 15.7833Z" fill="#8298B7"/>
</svg>
